# xmcd
#
# Track frame offsets: 
#        150
#        12754
#        25686
#        38134
#        46531
#        56586
#        68560
#        78939
#        92769
#        102152
#        114777
#        128816
#        154973
#        167884
#        180865
#        193194
#        201929
#        212179
#        224223
#        235006
#        248767
#        258296
#        270883
#        285027
#        311316
#        320306
#
# Disc length: 4696 seconds
#
# Revision: 0
# Processed by: cddbd v1.5.2PL0 Copyright (c) Steve Scherf et al.
# Submitted via: ExactAudioCopy v0.95b3
#
DISCID=4e12561a
DTITLE=The Monkees - The Monkees Complete 22 of 28  
DYEAR=1900
DGENRE=
TTITLE0=Through The Looking Glass
TTITLE1=Don't Listen To Linda
TTITLE2=I Won't Be The Same Without Her
TTITLE3=Just A Game
TTITLE4=Me Without You
TTITLE5=Don't Wait For Me
TTITLE6=You And I
TTITLE7=While I Cry
TTITLE8=Tear Drop City
TTITLE9=The Girl I Left Behind Me
TTITLE10=A Man Without A Dream
TTITLE11=Shorty Blackwell
TTITLE12=Through The Looking Glass (mono)
TTITLE13=Don't Listen To Linda (mono)
TTITLE14=I Won't Be The Same Without Her (mono)   Just A Game (mono)
TTITLE15=Just A Game (mono)
TTITLE16=Me Without You (mono)
TTITLE17=Don't Wait For Me (mono)
TTITLE18=You And I (mono)
TTITLE19=While I Cry (mono)
TTITLE20=Teardrop City (mono)
TTITLE21=The Girl I Left Behind Me (mono)
TTITLE22=A Man Without A Dream (mono)
TTITLE23=Shorty Blackwell (mono)
TTITLE24=Monkees Medley (Glen Campbell Show 2-5-69)
TTITLE25=Monkees Story (Glen Campbell Show 2-5-69)
EXTD=
EXTT0=
EXTT1=
EXTT2=
EXTT3=
EXTT4=
EXTT5=
EXTT6=
EXTT7=
EXTT8=
EXTT9=
EXTT10=
EXTT11=
EXTT12=
EXTT13=
EXTT14=
EXTT15=
EXTT16=
EXTT17=
EXTT18=
EXTT19=
EXTT20=
EXTT21=
EXTT22=
EXTT23=
EXTT24=
EXTT25=
PLAYORDER=
